Coordinates
version=1
nRows=37
nColumns=24
inDegrees=yes

Units are S.I. units (second, meters, Newtons, ...)
If the header above contains a line with 'inDegrees', this indicates whether rotational values are in degrees (yes) or radians (no).

endheader
time	pelvis_tilt	pelvis_list	pelvis_rotation	pelvis_tx	pelvis_ty	pelvis_tz	hip_flexion_r	hip_adduction_r	hip_rotation_r	knee_angle_r	ankle_angle_r	subtalar_angle_r	mtp_angle_r	hip_flexion_l	hip_adduction_l	hip_rotation_l	knee_angle_l	ankle_angle_l	subtalar_angle_l	mtp_angle_l	lumbar_extension	lumbar_bending	lumbar_rotation
0.800000	13.223376	3.139417	-177.790222	0.247168	0.848809	-1.210794	19.488042	-8.799780	-36.190398	-9.377008	-1.591565	13.722760	0.000000	21.062108	-15.211125	-32.534237	-8.939820	-2.629717	20.743337	0.000000	1.402447	0.699534	-0.443098
0.805000	13.229455	3.132120	-177.792351	0.247181	0.848813	-1.210718	19.492113	-8.809776	-36.209109	-9.364187	-1.599393	13.704533	0.000000	21.065037	-15.196772	-32.539749	-8.937538	-2.617310	20.762989	0.000000	1.416438	0.691060	-0.411496
0.810000	13.232241	3.139269	-177.802994	0.247200	0.848825	-1.210644	19.506874	-8.808686	-36.221422	-9.383257	-1.591109	13.687584	0.000000	21.063009	-15.200210	-32.545185	-8.922199	-2.623876	20.779029	0.000000	1.426487	0.700677	-0.363466
0.815000	13.232748	3.140401	-177.804388	0.247234	0.848846	-1.210587	19.509767	-8.811955	-36.221265	-9.383475	-1.591130	13.686238	0.000000	21.065317	-15.197553	-32.547300	-8.919052	-2.623298	20.780720	0.000000	1.425248	0.710303	-0.359862
0.820000	13.255442	3.136818	-177.813349	0.247296	0.848822	-1.210576	19.544541	-8.817039	-36.217654	-9.392980	-1.624224	13.661125	0.000000	21.097450	-15.202114	-32.586702	-8.941709	-2.616993	20.820421	0.000000	1.450787	0.708654	-0.323177
0.825000	13.252334	3.125019	-177.800186	0.247324	0.848806	-1.210549	19.531138	-8.829067	-36.185585	-9.372134	-1.628814	13.672832	0.000000	21.105862	-15.192040	-32.583766	-8.968991	-2.619493	20.841179	0.000000	1.445965	0.700910	-0.340687
0.830000	13.252562	3.123945	-177.794556	0.247352	0.848800	-1.210525	19.532651	-8.832809	-36.185245	-9.371173	-1.630001	13.672242	0.000000	21.111149	-15.188651	-32.586028	-8.968086	-2.618961	20.843240	0.000000	1.439132	0.702845	-0.338251
0.835000	13.247403	3.111693	-177.789949	0.247365	0.848803	-1.210458	19.531744	-8.853656	-36.186812	-9.379622	-1.637687	13.659539	0.000000	21.115795	-15.178589	-32.597505	-8.988903	-2.624830	20.861868	0.000000	1.431571	0.690153	-0.314445
0.840000	13.343045	3.227014	-177.862488	0.247631	0.848671	-1.210897	19.668852	-8.682636	-36.143058	-9.379288	-1.632193	13.612967	0.000000	21.266393	-15.365631	-32.638368	-9.053870	-2.648928	20.877813	0.000000	1.511688	0.760274	-0.217964
0.845000	13.273697	3.119465	-177.822212	0.247418	0.848800	-1.210337	19.582621	-8.849893	-36.144345	-9.404952	-1.667780	13.570433	0.000000	21.148020	-15.195205	-32.651205	-9.004141	-2.613259	20.924258	0.000000	1.455317	0.696901	-0.231773
0.850000	13.269419	3.108877	-177.815949	0.247480	0.848788	-1.210339	19.578745	-8.860041	-36.125498	-9.396230	-1.666898	13.579932	0.000000	21.159135	-15.188847	-32.646150	-9.033827	-2.620738	20.929241	0.000000	1.436587	0.687455	-0.234377
0.855000	13.264764	3.085894	-177.801420	0.247525	0.848797	-1.210325	19.569328	-8.885870	-36.103466	-9.387400	-1.674336	13.587563	0.000000	21.174927	-15.169980	-32.635461	-9.102361	-2.627475	20.925588	0.000000	1.419308	0.654860	-0.239052
0.860000	13.263696	3.071473	-177.796862	0.247563	0.848792	-1.210280	19.574426	-8.906546	-36.093727	-9.394379	-1.671925	13.583195	0.000000	21.188269	-15.156915	-32.632398	-9.126742	-2.623773	20.918563	0.000000	1.403384	0.646143	-0.242785
0.865000	13.366720	3.191707	-177.876132	0.247842	0.848631	-1.210709	19.732306	-8.736893	-36.064067	-9.418600	-1.638718	13.519655	0.000000	21.347135	-15.348422	-32.636249	-9.179378	-2.615924	20.910195	0.000000	1.487679	0.727038	-0.133982
0.870000	13.304694	3.099138	-177.828586	0.247679	0.848741	-1.210177	19.666625	-8.894283	-36.089251	-9.469312	-1.680041	13.464695	0.000000	21.257754	-15.196623	-32.617910	-9.150831	-2.582979	20.929669	0.000000	1.419217	0.689606	-0.197224
0.875000	13.280271	3.066100	-177.838409	0.247702	0.848776	-1.210130	19.646051	-8.928769	-36.047591	-9.472535	-1.659486	13.492617	0.000000	21.234738	-15.168878	-32.629134	-9.183952	-2.561103	20.900243	0.000000	1.379950	0.660545	-0.169749
0.880000	13.275461	3.055397	-177.828360	0.247775	0.848774	-1.210114	19.651592	-8.948181	-36.042871	-9.487961	-1.665270	13.492728	0.000000	21.255119	-15.163321	-32.615859	-9.227382	-2.561774	20.898433	0.000000	1.355319	0.639072	-0.148265
0.885000	13.266717	3.037030	-177.813483	0.247836	0.848807	-1.210081	19.651712	-8.978435	-36.033603	-9.504351	-1.668046	13.491131	0.000000	21.282430	-15.154070	-32.605680	-9.311001	-2.571591	20.884511	0.000000	1.325124	0.621114	-0.149879
0.890000	13.261872	3.026448	-177.799848	0.247891	0.848829	-1.210025	19.660018	-9.001190	-36.023399	-9.530769	-1.666788	13.486198	0.000000	21.306996	-15.145525	-32.588700	-9.352380	-2.568921	20.875266	0.000000	1.303495	0.602327	-0.131432
0.895000	13.256342	3.027440	-177.820247	0.247938	0.848850	-1.209970	19.688800	-9.013114	-36.027479	-9.593989	-1.659770	13.469575	0.000000	21.317486	-15.157268	-32.579191	-9.390337	-2.560693	20.847926	0.000000	1.279471	0.605771	-0.098979
0.900000	13.301216	2.991422	-177.831406	0.248052	0.848803	-1.209873	19.774665	-9.071074	-35.994047	-9.654620	-1.617637	13.423745	0.000000	21.376425	-15.084057	-32.324559	-9.383198	-2.564508	20.389410	0.000000	1.311452	0.572938	-0.056812
0.905000	13.287135	2.987932	-177.833782	0.248111	0.848798	-1.209858	19.780269	-9.083226	-35.980868	-9.691366	-1.624213	13.422989	0.000000	21.386921	-15.091946	-32.301906	-9.435650	-2.561391	20.387790	0.000000	1.277789	0.572230	-0.054843
0.910000	13.278959	2.962234	-177.817196	0.248204	0.848769	-1.209822	19.794894	-9.127197	-35.963198	-9.733437	-1.594416	13.392411	0.000000	21.419272	-15.075352	-32.290661	-9.522315	-2.490628	20.369803	0.000000	1.247135	0.546329	-0.073074
0.915000	13.265099	2.958852	-177.815370	0.248260	0.848788	-1.209771	19.808040	-9.148021	-35.943418	-9.788255	-1.591543	13.381765	0.000000	21.435809	-15.080145	-32.260084	-9.569391	-2.501047	20.364782	0.000000	1.219761	0.542438	-0.050549
0.920000	13.415129	3.062447	-177.870210	0.248654	0.848600	-1.210163	20.040984	-9.005433	-35.795169	-9.855293	-1.594295	13.081138	0.000000	21.692091	-15.247380	-32.136945	-9.706989	-2.470045	20.238537	0.000000	1.344066	0.600143	0.028217
0.925000	13.384667	3.063040	-177.875073	0.248708	0.848643	-1.210139	20.044715	-9.016625	-35.731383	-9.925190	-1.556329	13.031538	0.000000	21.696689	-15.266562	-32.126753	-9.780393	-2.443254	20.192680	0.000000	1.297238	0.594582	0.064550
0.930000	13.366070	3.050603	-177.857542	0.248787	0.848660	-1.210147	20.051115	-9.045966	-35.694719	-9.978440	-1.562586	13.019616	0.000000	21.727186	-15.270632	-32.089909	-9.865213	-2.450732	20.190254	0.000000	1.258305	0.572363	0.061648
0.935000	13.372096	3.000839	-177.832864	0.248917	0.848606	-1.210118	20.099984	-9.123352	-35.613294	-10.063894	-1.504668	12.934609	0.000000	21.793317	-15.233232	-32.037395	-9.989131	-2.335330	20.151920	0.000000	1.235574	0.515115	0.004087
0.940000	13.348463	2.996296	-177.830186	0.248979	0.848627	-1.210084	20.122348	-9.153421	-35.572820	-10.158245	-1.505657	12.909244	0.000000	21.811826	-15.246206	-31.998572	-10.072590	-2.346689	20.144551	0.000000	1.197922	0.509977	0.033852
0.945000	13.421488	2.969390	-177.873696	0.249171	0.848537	-1.210018	20.291785	-9.183048	-35.279039	-10.287751	-1.479836	12.439194	0.000000	21.930428	-15.221082	-31.830488	-10.155072	-2.304298	19.796798	0.000000	1.253120	0.489687	0.104118
0.950000	13.375301	2.997890	-177.904325	0.249207	0.848559	-1.209971	20.308500	-9.174676	-35.219696	-10.412328	-1.403288	12.389991	0.000000	21.931700	-15.282399	-31.770035	-10.255204	-2.204118	19.754988	0.000000	1.185162	0.539515	0.122893
0.955000	13.341835	2.976692	-177.911076	0.249302	0.848579	-1.209970	20.351612	-9.229896	-35.194314	-10.567924	-1.349016	12.308102	0.000000	21.959915	-15.291778	-31.722428	-10.403699	-2.170800	19.670498	0.000000	1.137087	0.524519	0.070980
0.960000	13.382064	2.932433	-177.919315	0.249516	0.848500	-1.209945	20.472778	-9.287904	-34.919459	-10.686255	-1.339934	11.991694	0.000000	22.060846	-15.225257	-31.351859	-10.490974	-2.141336	19.123178	0.000000	1.139850	0.468563	0.145426
0.965000	13.329912	2.916531	-177.899424	0.249629	0.848501	-1.210007	20.493240	-9.340983	-34.851952	-10.846300	-1.274599	11.935220	0.000000	22.101386	-15.249306	-31.280416	-10.672190	-2.036534	19.092813	0.000000	1.054426	0.436925	0.119909
0.970000	13.344642	2.847526	-177.873802	0.249827	0.848418	-1.209850	20.612819	-9.481159	-34.734973	-11.057049	-1.171867	11.843591	0.000000	22.204633	-15.186666	-31.164827	-10.832433	-1.929285	19.019313	0.000000	1.031900	0.368669	0.107153
0.975000	13.390209	2.814157	-177.899060	0.250119	0.848406	-1.209815	20.783260	-9.527241	-34.412582	-11.233274	-1.188301	11.359987	0.000000	22.322761	-15.080860	-30.446455	-10.833575	-2.036652	17.817813	0.000000	1.036762	0.330241	0.157982
0.980000	13.352770	2.801103	-177.922661	0.250243	0.848414	-1.209777	20.865244	-9.590744	-34.316482	-11.473722	-1.069074	11.298592	0.000000	22.369394	-15.109586	-30.343657	-11.017022	-1.941279	17.749871	0.000000	0.967323	0.321976	0.210697
